<?xml version="1.0" standalone="no"?>
<!DOCTYPE svg PUBLIC "-//W3C//DTD SVG 20010904//EN"
 "http://www.w3.org/TR/2001/REC-SVG-20010904/DTD/svg10.dtd">
<svg version="1.0" xmlns="http://www.w3.org/2000/svg"
 width="700.000000pt" height="700.000000pt" viewBox="0 0 700.000000 700.000000"
 preserveAspectRatio="xMidYMid meet">
<g transform="translate(0.000000,700.000000) scale(0.100000,-0.100000)"
fill="#000000" stroke="none">
<path d="M0 3500 l0 -3500 3500 0 3500 0 0 3500 0 3500 -3500 0 -3500 0 0
-3500z m3285 1268 c-4 -18 -127 -631 -273 -1363 l-267 -1330 -457 -3 c-433 -2
-458 -1 -458 16 0 14 518 2619 535 2690 l5 22 461 0 460 0 -6 -32z m1303 -539
c202 -22 468 -86 563 -135 l26 -13 -150 -298 c-82 -164 -151 -299 -152 -300
-1 -2 -38 15 -82 37 -233 114 -624 157 -765 84 -37 -19 -61 -58 -53 -84 12
-38 53 -50 397 -115 279 -52 399 -100 512 -206 113 -106 156 -207 156 -369 -1
-387 -287 -661 -792 -759 -337 -65 -755 -42 -1103 61 -83 24 -225 87 -225 100
0 10 57 125 196 394 l104 201 84 -42 c98 -49 212 -87 351 -117 80 -17 135 -22
275 -22 202 -1 258 12 280 64 27 66 -17 86 -290 131 -334 55 -457 96 -587 193
-110 83 -166 182 -182 326 -42 375 165 652 592 795 93 31 274 69 372 78 92 8
383 6 473 -4z"/>
</g>
</svg>
