<svg width="384" height="108" viewBox="0 0 384 108" fill="none" xmlns="http://www.w3.org/2000/svg">
<rect width="384" height="108" fill="black"/>
<path d="M37.77 34H51.93L43.53 76H29.37L37.77 34ZM60.6066 76.6C57.7666 76.6 55.0266 76.32 52.3866 75.76C49.7466 75.2 47.6866 74.48 46.2066 73.6L50.8866 64.36C52.4466 65.32 54.2466 66.06 56.2866 66.58C58.3666 67.1 60.3666 67.36 62.2866 67.36C64.9666 67.36 66.3066 66.84 66.3066 65.8C66.3066 65.36 65.9466 65.04 65.2266 64.84C64.5466 64.6 63.4466 64.38 61.9266 64.18C59.5666 63.82 57.5666 63.4 55.9266 62.92C54.2866 62.4 52.8466 61.52 51.6066 60.28C50.3666 59 49.7466 57.24 49.7466 55C49.7466 50.96 51.4666 47.88 54.9066 45.76C58.3466 43.64 62.7866 42.58 68.2266 42.58C70.6266 42.58 72.9266 42.8 75.1266 43.24C77.3666 43.64 79.3466 44.24 81.0666 45.04L76.3866 54.28C73.5466 52.64 70.2866 51.82 66.6066 51.82C65.1666 51.82 64.1066 51.98 63.4266 52.3C62.7866 52.62 62.4666 53 62.4666 53.44C62.4666 53.88 62.8066 54.22 63.4866 54.46C64.1666 54.66 65.3266 54.9 66.9666 55.18C69.2866 55.54 71.2466 55.98 72.8466 56.5C74.4866 56.98 75.9066 57.86 77.1066 59.14C78.3466 60.38 78.9666 62.1 78.9666 64.3C78.9666 66.94 78.1466 69.2 76.5066 71.08C74.9066 72.92 72.7066 74.3 69.9066 75.22C67.1466 76.14 64.0466 76.6 60.6066 76.6ZM106.952 58L117.692 76H101.792L96.1523 66.46L92.6723 69.7L91.4123 76H77.8523L86.7323 31.48H100.292L96.0923 52.54L106.712 43.18H123.392L106.952 58ZM153.275 57.04C153.275 58.84 153.035 60.74 152.555 62.74H129.575C129.855 64.1 130.515 65.08 131.555 65.68C132.595 66.28 134.035 66.58 135.875 66.58C138.595 66.58 140.975 65.82 143.015 64.3L148.655 72.52C144.655 75.24 139.875 76.6 134.315 76.6C130.755 76.6 127.595 75.98 124.835 74.74C122.115 73.5 119.995 71.74 118.475 69.46C116.995 67.18 116.255 64.5 116.255 61.42C116.255 57.82 117.095 54.6 118.775 51.76C120.495 48.88 122.895 46.64 125.975 45.04C129.055 43.4 132.595 42.58 136.595 42.58C140.035 42.58 143.015 43.2 145.535 44.44C148.055 45.64 149.975 47.34 151.295 49.54C152.615 51.7 153.275 54.2 153.275 57.04ZM135.995 51.82C134.515 51.82 133.275 52.22 132.275 53.02C131.315 53.78 130.595 54.84 130.115 56.2H140.855C140.855 54.84 140.415 53.78 139.535 53.02C138.655 52.22 137.475 51.82 135.995 51.82ZM179.161 42.58C182.721 42.58 185.561 43.54 187.681 45.46C189.841 47.38 190.921 50.14 190.921 53.74C190.921 55.1 190.781 56.48 190.501 57.88L186.901 76H173.341L176.641 59.5C176.801 58.54 176.881 57.88 176.881 57.52C176.881 55.16 175.741 53.98 173.461 53.98C170.261 53.98 168.241 56.06 167.401 60.22L164.221 76H150.661L157.201 43.18H169.981L169.321 46.48C170.721 45.16 172.261 44.18 173.941 43.54C175.661 42.9 177.401 42.58 179.161 42.58ZM235.556 31.48L226.676 76H213.896L214.496 73C212.016 75.4 209.076 76.6 205.676 76.6C203.436 76.6 201.276 76 199.196 74.8C197.116 73.6 195.416 71.86 194.096 69.58C192.816 67.26 192.176 64.54 192.176 61.42C192.176 57.9 192.956 54.7 194.516 51.82C196.116 48.94 198.256 46.68 200.936 45.04C203.616 43.4 206.516 42.58 209.636 42.58C213.996 42.58 217.116 43.92 218.996 46.6L221.996 31.48H235.556ZM205.916 60.76C205.916 62.32 206.336 63.58 207.176 64.54C208.056 65.46 209.256 65.92 210.776 65.92C212.536 65.92 213.956 65.24 215.036 63.88C216.156 62.52 216.716 60.7 216.716 58.42C216.716 56.86 216.276 55.62 215.396 54.7C214.556 53.74 213.376 53.26 211.856 53.26C210.096 53.26 208.656 53.94 207.536 55.3C206.456 56.66 205.916 58.48 205.916 60.76ZM268.2 57.04C268.2 58.84 267.96 60.74 267.48 62.74H244.5C244.78 64.1 245.44 65.08 246.48 65.68C247.52 66.28 248.96 66.58 250.8 66.58C253.52 66.58 255.9 65.82 257.94 64.3L263.58 72.52C259.58 75.24 254.8 76.6 249.24 76.6C245.68 76.6 242.52 75.98 239.76 74.74C237.04 73.5 234.92 71.74 233.4 69.46C231.92 67.18 231.18 64.5 231.18 61.42C231.18 57.82 232.02 54.6 233.7 51.76C235.42 48.88 237.82 46.64 240.9 45.04C243.98 43.4 247.52 42.58 251.52 42.58C254.96 42.58 257.94 43.2 260.46 44.44C262.98 45.64 264.9 47.34 266.22 49.54C267.54 51.7 268.2 54.2 268.2 57.04ZM250.92 51.82C249.44 51.82 248.2 52.22 247.2 53.02C246.24 53.78 245.52 54.84 245.04 56.2H255.78C255.78 54.84 255.34 53.78 254.46 53.02C253.58 52.22 252.4 51.82 250.92 51.82ZM284.247 46.54C286.927 43.9 290.767 42.58 295.767 42.58L293.367 54.58C292.367 54.42 291.387 54.34 290.427 54.34C288.107 54.34 286.267 54.86 284.907 55.9C283.587 56.9 282.687 58.54 282.207 60.82L279.147 76H265.587L272.127 43.18H284.907L284.247 46.54ZM296.384 76.6C294.184 76.6 292.384 75.94 290.984 74.62C289.624 73.26 288.944 71.54 288.944 69.46C288.944 66.98 289.764 64.98 291.404 63.46C293.044 61.9 295.064 61.12 297.464 61.12C299.664 61.12 301.444 61.78 302.804 63.1C304.164 64.42 304.844 66.14 304.844 68.26C304.844 70.74 304.024 72.76 302.384 74.32C300.744 75.84 298.744 76.6 296.384 76.6ZM325.467 44.98H332.547L330.567 54.88H323.907L319.647 76H306.087L310.287 54.88H305.787L307.767 44.98H312.267L312.447 44.2C313.247 40.12 315.067 36.88 317.907 34.48C320.747 32.08 324.487 30.88 329.127 30.88C332.527 30.88 335.307 31.42 337.467 32.5L332.307 41.92C331.347 41.4 330.327 41.14 329.247 41.14C328.167 41.14 327.327 41.44 326.727 42.04C326.167 42.64 325.747 43.6 325.467 44.92V44.98ZM341.487 43.18H354.987L348.447 76H334.947L341.487 43.18ZM349.707 40.54C347.387 40.54 345.527 39.94 344.127 38.74C342.727 37.5 342.027 35.96 342.027 34.12C342.027 32 342.827 30.24 344.427 28.84C346.027 27.44 348.107 26.74 350.667 26.74C352.987 26.74 354.847 27.32 356.247 28.48C357.647 29.6 358.347 31.08 358.347 32.92C358.347 35.2 357.547 37.04 355.947 38.44C354.387 39.84 352.307 40.54 349.707 40.54Z" fill="white"/>
</svg>
