<svg width="108" height="108" viewBox="0 0 108 108" fill="none" xmlns="http://www.w3.org/2000/svg">
<rect width="108" height="108" fill="#991B1B"/>
<path d="M36.5688 34H50.7288L42.3288 76H28.1688L36.5688 34ZM59.4054 76.6C56.5654 76.6 53.8254 76.32 51.1854 75.76C48.5454 75.2 46.4854 74.48 45.0054 73.6L49.6854 64.36C51.2454 65.32 53.0454 66.06 55.0854 66.58C57.1654 67.1 59.1654 67.36 61.0854 67.36C63.7654 67.36 65.1054 66.84 65.1054 65.8C65.1054 65.36 64.7454 65.04 64.0254 64.84C63.3454 64.6 62.2454 64.38 60.7254 64.18C58.3654 63.82 56.3654 63.4 54.7254 62.92C53.0854 62.4 51.6454 61.52 50.4054 60.28C49.1654 59 48.5454 57.24 48.5454 55C48.5454 50.96 50.2654 47.88 53.7054 45.76C57.1454 43.64 61.5854 42.58 67.0254 42.58C69.4254 42.58 71.7254 42.8 73.9254 43.24C76.1654 43.64 78.1454 44.24 79.8654 45.04L75.1854 54.28C72.3454 52.64 69.0854 51.82 65.4054 51.82C63.9654 51.82 62.9054 51.98 62.2254 52.3C61.5854 52.62 61.2654 53 61.2654 53.44C61.2654 53.88 61.6054 54.22 62.2854 54.46C62.9654 54.66 64.1254 54.9 65.7654 55.18C68.0854 55.54 70.0454 55.98 71.6454 56.5C73.2854 56.98 74.7054 57.86 75.9054 59.14C77.1454 60.38 77.7654 62.1 77.7654 64.3C77.7654 66.94 76.9454 69.2 75.3054 71.08C73.7054 72.92 71.5054 74.3 68.7054 75.22C65.9454 76.14 62.8454 76.6 59.4054 76.6Z" fill="white"/>
</svg>
