<svg width="1200" height="630" viewBox="0 0 1200 630" fill="none" xmlns="http://www.w3.org/2000/svg">
<rect width="1200" height="630" fill="black"/>
<path d="M445.77 295H459.93L451.53 337H437.37L445.77 295ZM468.607 337.6C465.767 337.6 463.027 337.32 460.387 336.76C457.747 336.2 455.687 335.48 454.207 334.6L458.887 325.36C460.447 326.32 462.247 327.06 464.287 327.58C466.367 328.1 468.367 328.36 470.287 328.36C472.967 328.36 474.307 327.84 474.307 326.8C474.307 326.36 473.947 326.04 473.227 325.84C472.547 325.6 471.447 325.38 469.927 325.18C467.567 324.82 465.567 324.4 463.927 323.92C462.287 323.4 460.847 322.52 459.607 321.28C458.367 320 457.747 318.24 457.747 316C457.747 311.96 459.467 308.88 462.907 306.76C466.347 304.64 470.787 303.58 476.227 303.58C478.627 303.58 480.927 303.8 483.127 304.24C485.367 304.64 487.347 305.24 489.067 306.04L484.387 315.28C481.547 313.64 478.287 312.82 474.607 312.82C473.167 312.82 472.107 312.98 471.427 313.3C470.787 313.62 470.467 314 470.467 314.44C470.467 314.88 470.807 315.22 471.487 315.46C472.167 315.66 473.327 315.9 474.967 316.18C477.287 316.54 479.247 316.98 480.847 317.5C482.487 317.98 483.907 318.86 485.107 320.14C486.347 321.38 486.967 323.1 486.967 325.3C486.967 327.94 486.147 330.2 484.507 332.08C482.907 333.92 480.707 335.3 477.907 336.22C475.147 337.14 472.047 337.6 468.607 337.6ZM514.952 319L525.692 337H509.792L504.152 327.46L500.672 330.7L499.412 337H485.852L494.732 292.48H508.292L504.092 313.54L514.712 304.18H531.392L514.952 319ZM561.275 318.04C561.275 319.84 561.035 321.74 560.555 323.74H537.575C537.855 325.1 538.515 326.08 539.555 326.68C540.595 327.28 542.035 327.58 543.875 327.58C546.595 327.58 548.975 326.82 551.015 325.3L556.655 333.52C552.655 336.24 547.875 337.6 542.315 337.6C538.755 337.6 535.595 336.98 532.835 335.74C530.115 334.5 527.995 332.74 526.475 330.46C524.995 328.18 524.255 325.5 524.255 322.42C524.255 318.82 525.095 315.6 526.775 312.76C528.495 309.88 530.895 307.64 533.975 306.04C537.055 304.4 540.595 303.58 544.595 303.58C548.035 303.58 551.015 304.2 553.535 305.44C556.055 306.64 557.975 308.34 559.295 310.54C560.615 312.7 561.275 315.2 561.275 318.04ZM543.995 312.82C542.515 312.82 541.275 313.22 540.275 314.02C539.315 314.78 538.595 315.84 538.115 317.2H548.855C548.855 315.84 548.415 314.78 547.535 314.02C546.655 313.22 545.475 312.82 543.995 312.82ZM587.161 303.58C590.721 303.58 593.561 304.54 595.681 306.46C597.841 308.38 598.921 311.14 598.921 314.74C598.921 316.1 598.781 317.48 598.501 318.88L594.901 337H581.341L584.641 320.5C584.801 319.54 584.881 318.88 584.881 318.52C584.881 316.16 583.741 314.98 581.461 314.98C578.261 314.98 576.241 317.06 575.401 321.22L572.221 337H558.661L565.201 304.18H577.981L577.321 307.48C578.721 306.16 580.261 305.18 581.941 304.54C583.661 303.9 585.401 303.58 587.161 303.58ZM643.556 292.48L634.676 337H621.896L622.496 334C620.016 336.4 617.076 337.6 613.676 337.6C611.436 337.6 609.276 337 607.196 335.8C605.116 334.6 603.416 332.86 602.096 330.58C600.816 328.26 600.176 325.54 600.176 322.42C600.176 318.9 600.956 315.7 602.516 312.82C604.116 309.94 606.256 307.68 608.936 306.04C611.616 304.4 614.516 303.58 617.636 303.58C621.996 303.58 625.116 304.92 626.996 307.6L629.996 292.48H643.556ZM613.916 321.76C613.916 323.32 614.336 324.58 615.176 325.54C616.056 326.46 617.256 326.92 618.776 326.92C620.536 326.92 621.956 326.24 623.036 324.88C624.156 323.52 624.716 321.7 624.716 319.42C624.716 317.86 624.276 316.62 623.396 315.7C622.556 314.74 621.376 314.26 619.856 314.26C618.096 314.26 616.656 314.94 615.536 316.3C614.456 317.66 613.916 319.48 613.916 321.76ZM676.2 318.04C676.2 319.84 675.96 321.74 675.48 323.74H652.5C652.78 325.1 653.44 326.08 654.48 326.68C655.52 327.28 656.96 327.58 658.8 327.58C661.52 327.58 663.9 326.82 665.94 325.3L671.58 333.52C667.58 336.24 662.8 337.6 657.24 337.6C653.68 337.6 650.52 336.98 647.76 335.74C645.04 334.5 642.92 332.74 641.4 330.46C639.92 328.18 639.18 325.5 639.18 322.42C639.18 318.82 640.02 315.6 641.7 312.76C643.42 309.88 645.82 307.64 648.9 306.04C651.98 304.4 655.52 303.58 659.52 303.58C662.96 303.58 665.94 304.2 668.46 305.44C670.98 306.64 672.9 308.34 674.22 310.54C675.54 312.7 676.2 315.2 676.2 318.04ZM658.92 312.82C657.44 312.82 656.2 313.22 655.2 314.02C654.24 314.78 653.52 315.84 653.04 317.2H663.78C663.78 315.84 663.34 314.78 662.46 314.02C661.58 313.22 660.4 312.82 658.92 312.82ZM692.247 307.54C694.927 304.9 698.767 303.58 703.767 303.58L701.367 315.58C700.367 315.42 699.387 315.34 698.427 315.34C696.107 315.34 694.267 315.86 692.907 316.9C691.587 317.9 690.687 319.54 690.207 321.82L687.147 337H673.587L680.127 304.18H692.907L692.247 307.54ZM704.384 337.6C702.184 337.6 700.384 336.94 698.984 335.62C697.624 334.26 696.944 332.54 696.944 330.46C696.944 327.98 697.764 325.98 699.404 324.46C701.044 322.9 703.064 322.12 705.464 322.12C707.664 322.12 709.444 322.78 710.804 324.1C712.164 325.42 712.844 327.14 712.844 329.26C712.844 331.74 712.024 333.76 710.384 335.32C708.744 336.84 706.744 337.6 704.384 337.6ZM733.467 305.98H740.547L738.567 315.88H731.907L727.647 337H714.087L718.287 315.88H713.787L715.767 305.98H720.267L720.447 305.2C721.247 301.12 723.067 297.88 725.907 295.48C728.747 293.08 732.487 291.88 737.127 291.88C740.527 291.88 743.307 292.42 745.467 293.5L740.307 302.92C739.347 302.4 738.327 302.14 737.247 302.14C736.167 302.14 735.327 302.44 734.727 303.04C734.167 303.64 733.747 304.6 733.467 305.92V305.98ZM749.487 304.18H762.987L756.447 337H742.947L749.487 304.18ZM757.707 301.54C755.387 301.54 753.527 300.94 752.127 299.74C750.727 298.5 750.027 296.96 750.027 295.12C750.027 293 750.827 291.24 752.427 289.84C754.027 288.44 756.107 287.74 758.667 287.74C760.987 287.74 762.847 288.32 764.247 289.48C765.647 290.6 766.347 292.08 766.347 293.92C766.347 296.2 765.547 298.04 763.947 299.44C762.387 300.84 760.307 301.54 757.707 301.54Z" fill="white"/>
</svg>
